PathFileType	4	(X/Y/Z)	C:\Users\Basilio\Documents\Thesis Gigler\squatting_fais\c3dfiles\054\SLS_front_pre1\markers_experimental.trc
DataRate	CameraRate	NumFrames	NumMarkers	Units	OrigDataRate	OrigDataStartFrame	OrigNumFrames
200.000000	200.000000	4	61	mm	200.000000	335	1342
Frame#	Time	FHD			LBHD			RBHD			C7			T10			CLAV			LSHO			LUUPA			LMUPA			LDUPA			LLEP			LMEP			LRAD			LUL			LRFIN			RSHO			RUPA1			RMUPA			RDUPA			RLEP			RMEP			RRAD			RUL			RUFIN			LASI			RASI			USACR			LSACR			RSACR			LTHI1			LTHI2			LTHI3			LTHI4			LLFC			LMFC			LTIB1			LTIB2			LTIB3			LTIB4			LLMAL			LMMAL			LHEE			LMT1			LMT2			LMT5			RTHI			RTHI2			RTHI3			RTHI4			RLFC			RMFC			RTIB1			RTIB2			RTIB3			RTIB4			RLMAL			RMMAL			RHEE			RMT1			RMT2			RMT5			
		X1	Y1	Z1	X2	Y2	Z2	X3	Y3	Z3	X4	Y4	Z4	X5	Y5	Z5	X6	Y6	Z6	X7	Y7	Z7	X8	Y8	Z8	X9	Y9	Z9	X10	Y10	Z10	X11	Y11	Z11	X12	Y12	Z12	X13	Y13	Z13	X14	Y14	Z14	X15	Y15	Z15	X16	Y16	Z16	X17	Y17	Z17	X18	Y18	Z18	X19	Y19	Z19	X20	Y20	Z20	X21	Y21	Z21	X22	Y22	Z22	X23	Y23	Z23	X24	Y24	Z24	X25	Y25	Z25	X26	Y26	Z26	X27	Y27	Z27	X28	Y28	Z28	X29	Y29	Z29	X30	Y30	Z30	X31	Y31	Z31	X32	Y32	Z32	X33	Y33	Z33	X34	Y34	Z34	X35	Y35	Z35	X36	Y36	Z36	X37	Y37	Z37	X38	Y38	Z38	X39	Y39	Z39	X40	Y40	Z40	X41	Y41	Z41	X42	Y42	Z42	X43	Y43	Z43	X44	Y44	Z44	X45	Y45	Z45	X46	Y46	Z46	X47	Y47	Z47	X48	Y48	Z48	X49	Y49	Z49	X50	Y50	Z50	X51	Y51	Z51	X52	Y52	Z52	X53	Y53	Z53	X54	Y54	Z54	X55	Y55	Z55	X56	Y56	Z56	X57	Y57	Z57	X58	Y58	Z58	X59	Y59	Z59	X60	Y60	Z60	X61	Y61	Z61	

336	1.675	-269.4026489257813	1791.337524414063	-1081.636352539063	-427.2469482421876	1730.528930664063	-1154.035278320313	-446.3363342285157	1729.812377929688	-1014.703002929688	-466.0042724609376	1557.102783203125	-1069.345092773438	-466.0964660644532	1223.59375	-1064.615966796875	-317.3711242675782	1509.626708984375	-1077.382568359375	-398.957733154297	1553.251586914063	-1230.234985351563	-279.2508239746094	1415.918823242188	-1375.167724609375	-242.7864685058594	1448.426025390625	-1372.321533203125	-215.8625946044922	1402.187744140625	-1399.112670898438	-159.3755950927735	1400.916137695313	-1409.580810546875	-153.1698913574219	1338.0078125	-1360.37255859375	106.5198593139649	1414.21484375	-1370.788818359375	111.3305358886719	1377.522583007813	-1440.498291015625	194.4724578857422	1426.987548828125	-1400.504028320313	-379.4022216796876	1555.2783203125	-922.6331176757815	-226.9930267333985	1431.9345703125	-796.5809326171877	-190.5979156494141	1462.024169921875	-806.1640625000002	-159.612045288086	1413.5380859375	-784.5717773437502	-115.4097213745117	1406.596069335938	-785.3818359375002	-120.4356002807617	1351.236572265625	-838.129577636719	150.3005676269532	1455.9580078125	-882.065612792969	152.3414154052735	1411.055053710938	-816.3300781250002	228.601058959961	1477.066284179688	-864.7053222656252	-253.1927032470704	1065.933349609375	-1167.029663085938	-270.5738830566407	1092.205688476563	-918.1228027343752	-457.0764160156251	1134.515869140625	-1055.095336914063	-455.4994201660157	1100.315185546875	-1079.922119140625	-461.0843200683595	1103.980590820313	-1023.307250976563	-318.7971801757813	811.030700683594	-1225.384521484375	-282.2674560546876	734.9157104492189	-1213.450317382813	-235.7337188720704	742.2143554687501	-1207.332641601563	-308.7964782714844	683.2476196289064	-1193.0205078125	-301.9511718750001	530.1857299804689	-1158.416748046875	-275.9780273437501	540.6622314453126	-1022.727111816406	-262.6933593750001	371.4019165039063	-1088.69091796875	-310.2438964843751	318.9288024902344	-1141.179809570313	-273.1305541992188	319.5010986328126	-1115.356201171875	-280.9637756347657	246.7103271484376	-1073.309814453125	-340.3294067382813	112.6641159057617	-1098.527465820313	-310.3387451171876	135.2203369140625	-1009.190734863281	-409.0552368164064	104.7042617797852	-1038.334350585938	-199.4984283447266	56.69256591796876	-1016.537353515625	-190.7542877197266	54.64022445678712	-1065.648681640625	-242.4183197021485	40.31582260131837	-1117.418701171875	-196.7295989990235	806.7780761718752	-838.110046386719	-135.6139373779297	781.0212402343752	-845.968200683594	-109.2976760864258	798.2191162109377	-856.7602539062502	-119.5328903198242	699.7399902343751	-858.658874511719	-93.96797943115236	612.3224487304689	-864.596374511719	-61.64945220947267	632.5993652343751	-997.3609619140627	-15.63362979888916	523.5116577148439	-875.6274414062502	-64.39959716796876	433.9656677246095	-844.2959594726565	-18.89709281921387	438.388641357422	-854.473083496094	7.78256130218506	395.1572265625001	-880.5725097656252	-4.39992380142212	210.7644195556641	-864.9241943359377	35.23088836669923	233.4644622802735	-948.2817993164065	-55.6135597229004	172.7918701171875	-928.1822509765627	165.1087951660157	173.5011444091797	-924.446228027344	167.432861328125	180.2602691650391	-876.6953125000002	117.4478836059571	155.1568756103516	-833.1939697265627	
337	1.68	-269.3962707519532	1791.394653320313	-1081.90869140625	-427.2913818359376	1730.520874023438	-1154.344360351563	-446.3444824218751	1729.82275390625	-1014.929931640625	-465.9783325195314	1557.103515625	-1069.52001953125	-466.1704406738282	1223.650634765625	-1064.801025390625	-317.3959655761719	1509.626098632813	-1077.512329101563	-398.824432373047	1553.21923828125	-1230.35986328125	-279.0290527343751	1415.859008789063	-1375.190673828125	-242.6577301025391	1448.32080078125	-1372.287109375	-215.6247711181641	1402.164672851563	-1399.145874023438	-159.1212921142578	1400.87939453125	-1409.42333984375	-153.007797241211	1337.965087890625	-1360.157348632813	106.8931427001953	1414.361328125	-1370.408813476563	111.6580657958985	1377.566650390625	-1440.107788085938	194.8132934570313	1426.9765625	-1400.103149414063	-379.4258422851563	1555.358520507813	-922.8428344726565	-227.0826721191407	1432.232421875	-796.3950805664065	-190.6460266113282	1462.197998046875	-806.2532958984377	-159.6668548583985	1413.755004882813	-784.746765136719	-115.4349746704102	1406.959716796875	-785.427429199219	-120.3778457641602	1351.391479492188	-838.2673339843752	150.2490997314453	1456.304931640625	-882.4261474609377	152.3721923828125	1411.5517578125	-816.6577758789065	228.5339508056641	1477.393310546875	-865.0786132812502	-253.2321014404297	1065.919799804688	-1167.01318359375	-270.7727966308594	1092.2822265625	-918.1539306640627	-457.1814880371095	1134.523803710938	-1055.264526367188	-455.6304321289064	1100.361938476563	-1080.0478515625	-461.1614685058595	1104.009643554688	-1023.364562988281	-318.8121032714844	811.0231933593752	-1225.364868164063	-282.4643859863282	735.1373291015626	-1213.367065429688	-235.7941131591797	742.2196655273439	-1207.302978515625	-308.8204956054688	683.1934814453126	-1193.020385742188	-302.0568847656251	530.1591186523439	-1158.403686523438	-275.9852905273438	540.6715698242189	-1022.727783203125	-262.7781982421876	371.4399108886719	-1088.730224609375	-310.2230834960938	318.9095764160157	-1141.230834960938	-273.1318054199219	319.5539550781251	-1115.4189453125	-280.9894714355469	246.6950073242188	-1073.309814453125	-340.3334045410157	112.6603317260742	-1098.579467773438	-310.4130249023438	135.2304382324219	-1009.154052734375	-408.9988708496095	104.6432571411133	-1038.384399414063	-199.6616363525391	56.63994216918947	-1016.260925292969	-190.732421875	54.60683441162111	-1065.686401367188	-242.4180908203126	40.2995834350586	-1117.415283203125	-196.8409271240235	806.8118286132815	-838.053894042969	-135.7431793212891	781.0052490234377	-845.9859619140627	-109.3758087158203	798.2583007812502	-856.6843261718752	-119.6201858520508	699.7565307617189	-858.6985473632815	-94.07885742187501	612.3833618164064	-864.6204833984377	-61.77245330810548	632.7848510742189	-997.3640747070315	-15.61572265625	523.6969604492189	-875.632019042969	-64.35085296630861	434.0143127441407	-844.2988891601565	-18.86630058288575	438.5447082519532	-854.4552001953127	7.78789281845093	395.3515014648439	-880.5671386718752	-4.198557853698731	210.9625549316407	-864.903259277344	35.49043273925782	233.6155242919922	-948.2663574218752	-55.42216110229494	172.8836517333985	-928.1823730468752	165.4922027587891	173.8388824462891	-924.3469238281252	167.8265686035157	180.613265991211	-876.5428466796877	117.7433624267578	155.4105224609375	-833.1719970703127	
338	1.685	-269.3091735839844	1791.412475585938	-1082.157348632813	-427.1939697265626	1730.539672851563	-1154.558349609375	-446.3338928222657	1729.843017578125	-1015.138671875	-465.964080810547	1557.117309570313	-1069.693969726563	-466.2272949218751	1223.643798828125	-1064.905883789063	-317.3504638671876	1509.596313476563	-1077.644897460938	-398.7606811523439	1553.2451171875	-1230.499755859375	-278.5926208496094	1416.005126953125	-1375.262573242188	-242.3954315185547	1448.283325195313	-1372.29345703125	-215.4076080322266	1402.177490234375	-1399.1396484375	-158.757553100586	1400.791625976563	-1409.341186523438	-152.6720275878907	1337.915771484375	-1359.940063476563	107.0655975341797	1414.406616210938	-1370.1123046875	111.3025665283203	1377.629760742188	-1439.624633789063	195.1361083984376	1427.072509765625	-1399.651977539063	-379.4802856445313	1555.428466796875	-922.9671630859377	-227.0872955322266	1432.281494140625	-796.8565063476565	-190.7299041748047	1462.353149414063	-806.345886230469	-159.8197937011719	1414.032470703125	-784.7844238281252	-115.4575576782227	1407.119262695313	-785.565368652344	-120.404281616211	1351.5771484375	-838.3950195312502	150.1563262939453	1456.64501953125	-882.8132934570315	152.2393035888672	1411.967407226563	-816.922790527344	228.5909271240235	1477.757446289063	-865.527526855469	-253.2990112304688	1065.928344726563	-1166.957397460938	-271.0506286621094	1092.224731445313	-918.1082763671877	-456.746551513672	1134.5654296875	-1055.641357421875	-455.6681213378907	1100.355834960938	-1080.165283203125	-461.2094116210939	1104.007446289063	-1023.427917480469	-318.9111633300782	811.0526123046877	-1225.302734375	-282.3238830566407	734.9028320312501	-1213.455810546875	-235.812240600586	742.1940307617189	-1207.319580078125	-308.8725585937501	683.2067871093751	-1193.038330078125	-302.0485839843751	530.1804809570314	-1158.417602539063	-276.0500793457032	540.6850585937501	-1022.744750976563	-262.8000793457032	371.4588317871094	-1088.689819335938	-310.2702331542969	318.9248657226563	-1141.254272460938	-273.3302307128907	319.4375000000001	-1115.30419921875	-281.0145874023438	246.7170410156251	-1073.335083007813	-340.3046569824219	112.6516723632813	-1098.600952148438	-310.3861999511719	135.2295227050782	-1009.20556640625	-409.0012512207032	104.6387405395508	-1038.369384765625	-199.6026306152344	56.55832290649415	-1016.282958984375	-190.7047424316407	54.6625099182129	-1065.665771484375	-242.4761810302735	40.3381462097168	-1117.478881835938	-197.0271301269532	806.8977661132815	-837.9885253906252	-135.9722290039063	781.013610839844	-845.815612792969	-109.5017013549805	798.3223266601565	-856.5770263671877	-119.7484741210938	699.8253784179689	-858.6281738281252	-94.1041717529297	612.4889526367189	-864.6817626953127	-61.14997482299806	632.7052612304689	-997.335144042969	-15.69251346588135	523.8886108398439	-875.6945800781252	-64.31845855712892	434.0872192382814	-844.2634887695315	-18.76021194458008	438.7425231933595	-854.5078735351565	7.83152484893799	395.4872436523439	-880.5061645507815	-4.026839256286622	211.0711669921876	-864.8737792968752	35.74696731567384	233.8432159423829	-948.290222167969	-55.10702896118165	172.8765563964844	-928.2065429687502	166.4645385742188	174.4332122802735	-924.1268310546877	168.0978546142578	180.9757537841797	-876.4544677734377	117.9595947265625	155.6262512207032	-833.1440429687502	
339	1.69	-269.2983398437501	1791.429931640625	-1082.323974609375	-427.1982421875001	1730.534912109375	-1154.770874023438	-446.3380126953126	1729.8916015625	-1015.306823730469	-465.8921508789064	1557.140869140625	-1069.834594726563	-466.224822998047	1223.686157226563	-1065.014526367188	-317.2207031250001	1509.588745117188	-1077.718627929688	-398.6939392089845	1553.272338867188	-1230.676879882813	-278.4559020996094	1415.953125	-1375.268432617188	-242.7129669189454	1448.494506835938	-1372.257446289063	-214.9819335937501	1402.050415039063	-1398.9677734375	-158.2715911865235	1400.61669921875	-1408.958251953125	-152.5005798339844	1337.905883789063	-1359.857055664063	107.3845443725586	1414.440673828125	-1369.775024414063	111.6544494628907	1377.6591796875	-1439.286376953125	195.4714050292969	1427.191650390625	-1399.22265625	-379.5215759277344	1555.478393554688	-923.0886230468752	-227.1813201904297	1432.546752929688	-796.649597167969	-190.8207550048828	1462.572387695313	-806.4063720703127	-159.8301086425782	1414.1708984375	-784.8128662109377	-115.3727416992188	1407.342163085938	-785.785583496094	-120.4504547119141	1351.91015625	-838.5538330078127	150.1694641113282	1456.946655273438	-883.167175292969	152.2279052734375	1412.31298828125	-817.1722412109377	228.3654785156251	1478.317504882813	-865.8003540039065	-252.7959289550782	1065.975952148438	-1167.120849609375	-271.3080749511719	1092.249145507813	-918.0715332031252	-457.4159545898439	1134.55908203125	-1055.496337890625	-455.8314514160157	1100.369140625	-1080.201904296875	-461.3214416503907	1104.034790039063	-1023.528259277344	-318.9500122070313	811.0209960937502	-1225.33349609375	-282.5294799804688	735.1356201171876	-1213.365356445313	-235.844467163086	742.2131958007814	-1207.282104492188	-308.8468933105469	683.1870117187501	-1193.035888671875	-302.1424865722657	530.2276611328126	-1158.425659179688	-276.0822143554688	540.6629638671876	-1022.777404785156	-262.8273315429688	371.4592895507813	-1088.730102539063	-310.2407531738282	318.9112548828126	-1141.20947265625	-273.2779235839844	319.5397949218751	-1115.40087890625	-281.0408020019532	246.7360992431641	-1073.38134765625	-340.3568725585938	112.659164428711	-1098.629760742188	-310.3929443359376	135.2345275878907	-1009.182434082031	-409.0751953125001	104.6929168701172	-1038.3505859375	-199.6429290771485	56.57840728759767	-1016.298461914063	-190.8242950439453	54.64655685424806	-1065.666137695313	-242.4465484619141	40.31835937500001	-1117.4189453125	-197.300033569336	806.9443969726565	-837.8374633789065	-136.1041717529297	781.0020751953127	-845.8236083984377	-109.6926879882813	798.3572998046877	-856.4895629882815	-119.8759155273438	699.8460083007814	-858.6494140625002	-94.3199920654297	612.5719604492189	-864.6304931640627	-61.20981216430665	632.8636474609376	-997.3088989257815	-15.7433557510376	524.0291748046876	-875.6502075195315	-64.28682708740236	434.2128906250001	-844.2763671875002	-18.74553871154786	438.8316955566407	-854.4990844726565	7.855950832366945	395.6168518066407	-880.514587402344	-3.764006853103639	211.1843719482422	-864.8480224609377	35.96670150756837	234.0127258300782	-948.2530517578127	-54.82239151000978	172.9545440673828	-928.2336425781252	167.4332733154297	174.985824584961	-924.1834106445315	168.3052673339844	181.2988586425782	-876.3198852539065	118.2327194213867	155.868637084961	-833.0859985351565	
